<svg width="757" height="692" viewBox="0 0 757 692" fill="none" xmlns="http://www.w3.org/2000/svg">
<mask id="mask0_78_96" style="mask-type:alpha" maskUnits="userSpaceOnUse" x="0" y="654" width="757" height="304">
<rect y="654" width="757" height="304" fill="#D9D9D9"/>
</mask>
<g mask="url(#mask0_78_96)">
<path d="M378 657C584.002 657 751 633.271 751 604C751 574.729 586.16 564.807 378 551C182 538 41 529.51 41 503C41 476.49 191 466.579 378 455C539.5 445 675 436.196 675 413C675 389.804 531 381.5 378 371C225 360.5 120 354.882 120 335C120 315.118 234.5 309.457 378 299C501.5 290 600 285.121 600 268C600 250.879 504 246 378 237C269.5 229.25 182 224.912 182 210C182 195.088 270.5 191.811 378 183C469.5 175.5 540 173.15 540 161C540 148.85 472 145 378 139C307 134.468 245 129.15 245 117C245 104.85 305 102.357 378 95C442.5 88.5 487 86.9411 487 77C487 67.0589 440.5 64 378 59C329.5 55.12 282 51.8366 282 43C282 34.1634 325 33.0729 378 27C426 21.5 459 20.9558 459 13.5C459 6.04416 422.735 0 378 0" stroke="black" stroke-width="2" stroke-linecap="round" stroke-dasharray="1 5"/>
</g>
</svg>
