<svg height="682" viewBox="0 0 0 682" fill="none" xmlns="http://www.w3.org/2000/svg">
<path d="M-1.49997 681.5C-1.49997 682.328 -0.828397 683 2.97893e-05 683C0.828457 683 1.50003 682.328 1.50003 681.5H2.97893e-05H-1.49997ZM3.0139e-05 8C4.41831 8 8.00003 4.41827 8.00003 -3.49691e-07C8.00003 -4.41827 4.41831 -8 2.94396e-05 -8C-4.41825 -8 -7.99997 -4.41827 -7.99997 3.49691e-07C-7.99997 4.41827 -4.41825 8 3.0139e-05 8ZM2.97893e-05 681.5H1.50003L1.50003 -6.55671e-08L2.97893e-05 0L-1.49997 6.55671e-08L-1.49997 681.5H2.97893e-05Z" fill="black"/>
</svg>
