<?xml version="1.0" encoding="utf-8"?>
<!-- Generator: Adobe Illustrator 26.3.0, SVG Export Plug-In . SVG Version: 6.00 Build 0)  -->
<svg version="1.1" id="Capa_1" xmlns="http://www.w3.org/2000/svg" xmlns:xlink="http://www.w3.org/1999/xlink" x="0px" y="0px"
	 viewBox="0 0 1101.3 1058.2" style="enable-background:new 0 0 1101.3 1058.2;" xml:space="preserve">
<style type="text/css">
	.st0{fill:#D9D9D9;fill-opacity:0.5;}
	.st1{fill:none;stroke:#000000;stroke-width:2;stroke-linecap:round;stroke-miterlimit:10;stroke-dasharray:2,8;}
	.st2{display:none;}
	.st3{display:inline;fill:#0900FF;}
	.st4{display:inline;fill:#FF0000;}
	.st5{display:inline;fill:none;stroke:#000000;}
	.st6{display:inline;fill:#39CA04;}
	.st7{display:inline;fill:#F4E434;}
</style>
<ellipse class="st0" cx="550.6" cy="874.6" rx="330" ry="30"/>
<path d="M549.1,873.1c0,0.8,0.7,1.5,1.5,1.5s1.5-0.7,1.5-1.5h-1.5H549.1z M550.6,199.6c4.4,0,8-3.6,8-8c0-4.4-3.6-8-8-8s-8,3.6-8,8
	C542.6,196,546.2,199.6,550.6,199.6z M550.6,873.1h1.5V191.6h-1.5h-1.5v681.5H550.6z"/>
<ellipse class="st1" cx="550.6" cy="692.9" rx="335.7" ry="30.5"/>
<ellipse class="st1" cx="550.6" cy="561.9" rx="284.6" ry="21.7"/>
<ellipse class="st1" cx="550.6" cy="433.8" rx="248.6" ry="15.8"/>
<ellipse class="st1" cx="550.6" cy="305.9" rx="206.8" ry="10.2"/>
<ellipse class="st1" cx="550.6" cy="186.4" rx="86" ry="2.8"/>
<ellipse class="st1" cx="550.6" cy="827" rx="382.2" ry="34.7"/>
<g id="Circulos" class="st2">
	<circle class="st3" cx="647.6" cy="375.7" r="35.5"/>
	<circle class="st4" cx="325.6" cy="589.1" r="55"/>
	<circle class="st5" cx="325.6" cy="589.1" r="64.5"/>
	<circle class="st6" cx="736.6" cy="439.1" r="13"/>
	<circle class="st3" cx="834.6" cy="599.1" r="22"/>
	<circle class="st3" cx="394.1" cy="418.6" r="33.5"/>
	<circle class="st5" cx="394.1" cy="418.6" r="43"/>
	<circle class="st4" cx="625.7" cy="235.1" r="32"/>
	<circle class="st7" cx="674.6" cy="540.1" r="42"/>
	<circle class="st6" cx="444.6" cy="282.1" r="50"/>
	<circle class="st6" cx="693.1" cy="737.6" r="43.5"/>
	<circle class="st5" cx="693.1" cy="737.6" r="53"/>
	<circle class="st7" cx="784.9" cy="286.4" r="40"/>
	<circle class="st5" cx="784.9" cy="286.4" r="49.5"/>
	<circle class="st6" cx="244.1" cy="720.6" r="20.5"/>
	<circle class="st3" cx="404.6" cy="746.1" r="39"/>
	<circle class="st7" cx="280.6" cy="452.1" r="20"/>
	<path class="st4" d="M363.1,229.6c0,11-9,20-20,20c-11,0-20-9-20-20s9-20,20-20C354.2,209.6,363.1,218.6,363.1,229.6z"/>
	<circle class="st4" cx="836.6" cy="459.1" r="41"/>
	<circle class="st7" cx="280.6" cy="814.1" r="41"/>
</g>
</svg>
